<?xml version="1.0" standalone="no"?>
<!DOCTYPE svg PUBLIC "-//W3C//DTD SVG 20010904//EN"
 "http://www.w3.org/TR/2001/REC-SVG-20010904/DTD/svg10.dtd">
<svg version="1.0" xmlns="http://www.w3.org/2000/svg"
 width="15080.000000pt" height="2404.000000pt" viewBox="0 0 15080.000000 2404.000000"
 preserveAspectRatio="xMidYMid meet">

<g transform="translate(0.000000,2404.000000) scale(0.100000,-0.100000)"
fill="#000000" stroke="none">
<path d="M3785 24005 c-2074 -13 -3771 -23 -3772 -24 -2 0 -3 -5392 -3 -11981
l0 -11980 4595 0 4595 0 0 2449 0 2450 8789 9493 8789 9493 -5661 3 c-3567 1
-5664 -1 -5671 -7 -7 -6 -1427 -1810 -3156 -4009 l-3145 -4000 -3 4069 -2
4069 -793 -1 c-435 -1 -2488 -12 -4562 -24z"/>
<path d="M64553 20913 c4 -1693 12 -6563 17 -10823 6 -4260 13 -8268 16 -8907
l6 -1163 4594 0 4594 0 0 2453 1 2452 8784 9488 c4832 5218 8785 9490 8785
9492 0 3 -2548 5 -5662 5 l-5663 0 -3149 -4006 c-1732 -2203 -3153 -4007
-3158 -4010 -4 -3 -8 1813 -8 4034 l0 4040 -1282 6 c-706 3 -2768 8 -4582 11
l-3299 6 6 -3078z"/>
<path d="M28916 21468 c2 -1338 7 -2866 10 -3396 l6 -962 4577 2 4576 3 0
3390 0 3390 -4587 3 -4587 2 5 -2432z"/>
<path d="M106100 12005 l0 -11885 9735 0 9735 0 0 2890 0 2890 -5920 0 -5920
0 0 1835 0 1835 4805 0 4805 0 0 2725 0 2725 -4802 2 -4803 3 -3 1588 -2 1587
5685 0 5685 0 0 2845 0 2845 -9500 0 -9500 0 0 -11885z"/>
<path d="M127190 23883 c0 -5 1799 -5353 3997 -11885 l3998 -11878 3804 3
3804 2 3997 11875 c2198 6531 3995 11878 3993 11883 -2 4 -1687 7 -3743 7
-3551 0 -3740 -1 -3748 -17 -5 -10 -971 -3458 -2147 -7663 -1176 -4205 -2140
-7648 -2144 -7652 -3 -4 -907 3443 -2007 7660 l-2001 7667 -3902 3 c-2145 1
-3901 -1 -3901 -5z"/>
<path d="M52955 23869 c-1547 -76 -3023 -392 -4419 -945 -3882 -1539 -6681
-4710 -7560 -8564 -348 -1524 -399 -3149 -146 -4645 249 -1475 801 -2864 1629
-4105 1402 -2097 3571 -3740 6206 -4698 2630 -956 5544 -1159 8268 -576 2019
433 3874 1291 5461 2528 89 69 181 142 204 163 l44 38 -1403 1905 c-771 1048
-2023 2749 -2782 3780 -759 1031 -1387 1883 -1396 1893 -16 16 -19 14 -65 -40
-237 -284 -545 -560 -861 -772 -501 -335 -1027 -535 -1620 -616 -163 -23 -566
-31 -737 -15 -1386 125 -2392 1015 -2528 2235 -14 126 -14 457 0 595 86 854
462 1536 1095 1987 344 245 747 403 1210 475 168 26 551 36 732 19 455 -43
891 -170 1321 -385 189 -94 290 -154 472 -277 261 -177 523 -399 741 -628 71
-75 122 -121 128 -115 4 5 532 731 1173 1614 640 883 1714 2361 2384 3285 671
924 1401 1929 1622 2233 221 305 402 557 402 560 -1 15 -395 297 -710 507
-2066 1384 -4322 2227 -6665 2490 -226 25 -478 47 -760 66 -209 14 -1209 20
-1440 8z"/>
<path d="M28959 14938 c-1 -9 -58 -13664 -59 -14185 l0 -643 4595 0 4595 0 -2
7413 -3 7412 -4562 3 c-2510 1 -4563 1 -4564 0z"/>
<path d="M94010 12060 l0 -950 3855 0 3855 0 0 950 0 950 -3855 0 -3855 0 0
-950z"/>
<path d="M15935 8869 c-1853 -1986 -3396 -3639 -3428 -3674 l-57 -64 1347
-2510 1347 -2511 5573 0 5573 0 -17 34 c-47 90 -6959 12335 -6963 12335 -3 1
-1521 -1624 -3375 -3610z"/>
<path d="M80469 8824 c-1878 -2012 -3420 -3667 -3427 -3678 -12 -19 106 -243
1331 -2526 l1344 -2505 5578 -3 5577 -2 -20 32 c-11 18 -1580 2798 -3487 6178
-1907 3380 -3470 6149 -3474 6153 -4 4 -1544 -1638 -3422 -3649z"/>
</g>
</svg>
